# xmcd
#
# Track frame offsets:
#	150
#	28775
#	43963
#	68413
#	91288
#	109538
#	135688
#	169413
#	189625
#	208625
#	226500
#	242738
#
# Disc length: 3590 seconds
#
# Revision: 0
# Processed by: cddbd v1.4PL0 Copyright (c) Steve Scherf et al.
# Submitted via: dBpowerAMP V4.0
#
DISCID=9e0e040c
DTITLE=Teddy Pendergrass - BET On Music Presents Teddy Pendergrass
DYEAR=1994
DGENRE=R&B
TTITLE0=The Love I Lost
TTITLE1=If You Don't Know Me By Now
TTITLE2=Close The Door
TTITLE3=Only You
TTITLE4=You Can't Hide From Yourself
TTITLE5=Come Go With Me
TTITLE6=Wake Up Everybody
TTITLE7=The Whole Town's Laughing At Me
TTITLE8=Life Is A Song Worth Singing
TTITLE9=I Don't Love You Anymore
TTITLE10=Now Is The Time To Do It
TTITLE11=Turn Off The Lights
EXTD=Stephen L. Percival
EXTT0=
EXTT1=
EXTT2=
EXTT3=
EXTT4=
EXTT5=
EXTT6=
EXTT7=
EXTT8=
EXTT9=
EXTT10=
EXTT11=
PLAYORDER=
